<svg width="549" height="200" viewBox="0 0 549 200" fill="none" xmlns="http://www.w3.org/2000/svg">
    <path d="M301 111.5L276 78H260V105H276L301 138H317V111.5H301Z" fill="black"/>
    <path d="M260 78H276V138H260V78Z" fill="black"/>
    <path d="M301 33H317V138H301V33Z" fill="black"/>
    <path d="M455 94V78H549V94H455Z" fill="black"/>
    <path d="M477 78H493V138H477V78Z" fill="black"/>
    <path d="M320 78H336V138H320V78Z" fill="black"/>
    <path d="M320 138V122H367V138H320Z" fill="black"/>
    <path d="M320 94V78H367V94H320Z" fill="black"/>
    <path d="M392.5 78H370L429.5 138H452.5L392.5 78Z" fill="black"/>
    <path d="M430 78H452.5L363 168H340L430 78Z" fill="black"/>
    <path d="M63.4146 63.8293H26.8293L63.4146 100.415L0 163.829H36.5854L100 100.415L63.4146 63.8293Z" fill="black"/>
    <path d="M136.585 137H173.171L136.585 100.415L200 37H163.415L100 100.415L136.585 137Z" fill="black"/>
</svg>
